# File created by Blade
# Date/Time:  Tue Jan 27 19:38:24 2015
#---------------------------------------------------------
:version 1.10
:name HOM
:units
  mass 1.0
  length 1.000000
  angle deg
:documentation
     Acclaim Skeleton File
:root
   axis xyz
   order TX TY TZ RX RY RZ
   position 0.000000 0.000000 0.000000
   orientation 0 0 0
:bonedata
   begin
      id 1
      name Spine_dum
      direction 0.000000 1.000000 0.000000
      length 6.116652
      axis 0.0 0.0 0.0 xyz
   end
   begin
      id 2
      name LeftUpLeg_dum
      direction 1.000000 0.000000 0.000000
      length 4.711765
      axis 0.0 0.0 0.0 xyz
   end
   begin
      id 3
      name RightUpLeg_dum
      direction -1.000000 0.000000 0.000000
      length 4.711765
      axis 0.0 0.0 0.0 xyz
   end
   begin
      id 4
      name Spine
      direction 0.000000 1.000000 0.000000
      length 0.000000
      axis 0.0 0.0 0.0 xyz
      dof rx ry rz
   end
   begin
      id 5
      name Spine_dum1
      direction 0.000000 1.000000 0.000000
      length 15.225563
      axis 0.0 0.0 0.0 xyz
   end
   begin
      id 6
      name Spine_dum2
      direction 0.000000 1.000000 0.000000
      length 8.977654
      axis 0.0 0.0 0.0 xyz
   end
   begin
      id 7
      name Spine_dum3
      direction 0.000000 1.000000 0.000000
      length 8.977654
      axis 0.0 0.0 0.0 xyz
   end
   begin
      id 8
      name Head
      direction 0.000000 1.000000 0.000000
      length 4.527550
      axis 0.0 0.0 0.0 xyz
      dof rx ry rz
   end
   begin
      id 9
      name LeftShoulder
      direction 1.000000 0.000000 0.000000
      length 7.110130
      axis 0.0 0.0 -90.0 xyz
      dof rx ry rz
   end
   begin
      id 10
      name LeftArm
      direction 1.000000 0.000000 0.000000
      length 10.398341
      axis 0.0 0.0 -90.0 xyz
      dof rx ry rz
   end
   begin
      id 11
      name LeftForeArm
      direction 1.000000 0.000000 0.000000
      length 8.888997
      axis 0.0 0.0 -90.0 xyz
      dof ry rz rx
   end
   begin
      id 12
      name LeftHand
      direction 0.000000 0.000000 0.000000
      length 0.000000
      axis 0.0 0.0 -90.0 xyz
      dof rx ry rz
   end
   begin
      id 13
      name LeftHand_dum1
      direction 0.000000 0.000000 0.000000
      length 0.000000
      axis 0.0 0.0 -90.0 xyz
   end
   begin
      id 14
      name LeftHand_dum2
      direction 1.000000 0.000000 0.000000
      length 3.937000
      axis 0.0 0.0 -90.0 xyz
   end
   begin
      id 15
      name LeftHandThumb1
      direction 0.000000 0.000000 1.000000
      length 3.937000
      axis 0.0 0.0 -90.0 xyz
      dof rx rz ry
   end
   begin
      id 16
      name RightShoulder
      direction -1.000000 0.000000 0.000000
      length 7.110130
      axis 0.0 0.0 90.0 xyz
      dof rx ry rz
   end
   begin
      id 17
      name RightArm
      direction -1.000000 0.000000 0.000000
      length 10.398341
      axis 0.0 0.0 90.0 xyz
      dof rx ry rz
   end
   begin
      id 18
      name RightForeArm
      direction -1.000000 0.000000 0.000000
      length 8.888997
      axis 0.0 0.0 90.0 xyz
      dof ry rz rx
   end
   begin
      id 19
      name RightHand
      direction 0.000000 0.000000 0.000000
      length 0.000000
      axis 0.0 0.0 90.0 xyz
      dof rx ry rz
   end
   begin
      id 20
      name RightHand_dum1
      direction 0.000000 0.000000 0.000000
      length 0.000000
      axis 0.0 0.0 90.0 xyz
   end
   begin
      id 21
      name RightHand_dum2
      direction -1.000000 0.000000 0.000000
      length 3.937000
      axis 0.0 0.0 90.0 xyz
   end
   begin
      id 22
      name RightHandThumb1
      direction 0.000000 0.000000 1.000000
      length 3.937000
      axis 0.0 0.0 90.0 xyz
      dof rx rz ry
   end
   begin
      id 23
      name LeftUpLeg
      direction 0.000000 -1.000000 0.000000
      length 15.510451
      axis 0.0 0.0 0.0 xyz
      dof rx ry rz
   end
   begin
      id 24
      name LeftLeg
      direction 0.000000 -1.000000 0.000000
      length 14.858061
      axis 0.0 0.0 0.0 xyz
      dof rx ry rz
   end
   begin
      id 25
      name LeftFoot
      direction 0.000000 -0.258819 0.965926
      length 5.128852
      axis 15.0 0.0 0.0 xyz
      dof rx ry rz
   end
   begin
      id 26
      name LeftToeBase
      direction 0.000000 0.000000 1.000000
      length 2.952750
      axis 0.0 0.0 0.0 xyz
      dof rx ry rz
   end
   begin
      id 27
      name RightUpLeg
      direction 0.000000 -1.000000 0.000000
      length 15.510451
      axis 0.0 0.0 0.0 xyz
      dof rx ry rz
   end
   begin
      id 28
      name RightLeg
      direction 0.000000 -1.000000 0.000000
      length 14.858061
      axis 0.0 0.0 0.0 xyz
      dof rx ry rz
   end
   begin
      id 29
      name RightFoot
      direction 0.000000 -0.258819 0.965926
      length 5.128852
      axis 15.0 0.0 0.0 xyz
      dof rx ry rz
   end
   begin
      id 30
      name RightToeBase
      direction 0.000000 0.000000 1.000000
      length 2.952750
      axis 0.0 0.0 0.0 xyz
      dof rx ry rz
   end
:hierarchy
   begin
      root Spine_dum LeftUpLeg_dum RightUpLeg_dum
      Spine_dum Spine
      LeftUpLeg_dum LeftUpLeg
      RightUpLeg_dum RightUpLeg
      Spine Spine_dum1 Spine_dum2 Spine_dum3
      Spine_dum1 Head
      Spine_dum2 LeftShoulder
      Spine_dum3 RightShoulder
      LeftShoulder LeftArm
      LeftArm LeftForeArm
      LeftForeArm LeftHand
      LeftHand LeftHand_dum1 LeftHand_dum2
      LeftHand_dum1 LeftHandThumb1
      RightShoulder RightArm
      RightArm RightForeArm
      RightForeArm RightHand
      RightHand RightHand_dum1 RightHand_dum2
      RightHand_dum1 RightHandThumb1
      LeftUpLeg LeftLeg
      LeftLeg LeftFoot
      LeftFoot LeftToeBase
      RightUpLeg RightLeg
      RightLeg RightFoot
      RightFoot RightToeBase
   end

# File created by Blade
# Date/Time:  Tue Jan 27 19:38:14 2015
# Frame Rate: 120.000 fps
#------------------------------------------------------
:FULLY-SPECIFIED
:DEGREES
1155
root 4.760009 32.326670 1.917859 -6.199746 4.539490 0.679353
Spine 3.496658 24.560700 1.154230
Head 10.703054 -21.241717 0.962559
LeftShoulder -6.291330 -5.190023 26.558459
LeftArm -3.682603 37.296423 -100.987622
LeftForeArm 4.992357 -0.000000 11.337626
LeftHand 10.375500 -0.000000 -5.843447
LeftHandThumb1 -26.253704 0.000000 33.147579
RightShoulder -1.198126 2.571627 -26.308369
RightArm 17.513597 27.762399 122.003459
RightForeArm -4.779675 -0.000000 71.064649
RightHand 24.480221 -0.000000 -3.240454
RightHandThumb1 -24.326973 -0.000000 -32.862282
LeftUpLeg 8.465584 -4.951425 -4.290285
LeftLeg 5.240505 -0.000000 -0.000000
LeftFoot -16.751369 11.697903 -20.743218
LeftToeBase 16.599817 -0.000000 -0.000000
RightUpLeg 9.393093 -10.595507 1.402410
RightLeg 3.505908 -0.000000 -0.000000
RightFoot -13.643240 -13.951150 13.543130
RightToeBase 8.988491 -0.000000 -0.000000
1156
root 4.763592 32.326602 1.920416 -6.194193 4.495924 0.676456
Spine 3.493553 24.418877 1.154781
Head 10.656947 -21.331087 0.983539
LeftShoulder -6.274284 -5.168490 26.540461
LeftArm -3.691266 37.528722 -101.064471
LeftForeArm 4.954525 -0.000000 11.204185
LeftHand 10.463790 -0.000000 -6.055733
LeftHandThumb1 -26.253704 0.000000 33.147579
RightShoulder -1.195093 2.555351 -26.324643
RightArm 17.525477 27.652210 121.996848
RightForeArm -4.902134 0.000000 70.973830
RightHand 24.425644 0.000000 -3.210966
RightHandThumb1 -24.326973 -0.000000 -32.862282
LeftUpLeg 8.480351 -4.912138 -4.286914
LeftLeg 5.212820 -0.000000 -0.000000
LeftFoot -16.844440 11.670918 -20.947963
LeftToeBase 16.879670 -0.000000 -0.000000
RightUpLeg 9.387479 -10.589847 1.395817
RightLeg 3.504989 -0.000000 -0.000000
RightFoot -13.624446 -13.905009 13.544511
RightToeBase 8.972652 -0.000000 -0.000000
1157
root 4.765091 32.326080 1.922894 -6.185630 4.423942 0.667569
Spine 3.491753 24.292536 1.143731
Head 10.614769 -21.333191 1.015664
LeftShoulder -6.266078 -5.162534 26.547094
LeftArm -3.712394 37.650014 -101.147662
LeftForeArm 5.053410 -0.000000 11.089533
LeftHand 10.458905 0.000000 -6.172458
LeftHandThumb1 -26.253704 0.000000 33.147579
RightShoulder -1.200254 2.567787 -26.338361
RightArm 17.482062 27.485711 121.911757
RightForeArm -4.923532 -0.000000 70.870196
RightHand 24.428158 0.000000 -3.207723
RightHandThumb1 -24.326973 -0.000000 -32.862282
LeftUpLeg 8.502360 -4.847934 -4.277047
LeftLeg 5.177706 -0.000000 -0.000000
LeftFoot -16.767347 11.719102 -20.750760
LeftToeBase 16.525306 -0.000000 -0.000000
RightUpLeg 9.370910 -10.496701 1.414270
RightLeg 3.510525 -0.000000 -0.000000
RightFoot -13.629977 -13.915764 13.553478
RightToeBase 8.937484 -0.000000 -0.000000
1158
root 4.767032 32.325599 1.927974 -6.184596 4.355685 0.671845
Spine 3.493325 24.175984 1.113952
Head 10.569844 -21.331286 1.056248
LeftShoulder -6.241356 -5.170236 26.555407
LeftArm -3.751821 37.782194 -101.243488
LeftForeArm 5.166731 -0.000000 11.011226
LeftHand 10.266188 -0.000000 -6.666289
LeftHandThumb1 -26.253704 0.000000 33.147579
RightShoulder -1.234404 2.589789 -26.333535
RightArm 17.410505 27.342269 121.828675
RightForeArm -4.952455 -0.000000 70.797061
RightHand 24.456403 0.000000 -3.342155
RightHandThumb1 -24.326973 -0.000000 -32.862282
LeftUpLeg 8.543435 -4.746099 -4.272077
LeftLeg 5.122390 -0.000000 -0.000000
LeftFoot -16.741655 11.693119 -20.723009
LeftToeBase 16.487067 -0.000000 -0.000000
RightUpLeg 9.367352 -10.446996 1.411890
RightLeg 3.519835 -0.000000 -0.000000
RightFoot -13.638900 -13.897398 13.547367
RightToeBase 8.973112 -0.000000 -0.000000
1159
root 4.769552 32.326053 1.929330 -6.172814 4.283176 0.664817
Spine 3.495845 24.047425 1.105186
Head 10.509728 -21.328747 1.081706
LeftShoulder -6.234120 -5.152262 26.547435
LeftArm -3.757444 37.868751 -101.304323
LeftForeArm 5.271107 -0.000000 10.958134
LeftHand 10.332474 -0.000000 -7.022747
LeftHandThumb1 -26.253704 0.000000 33.147579
RightShoulder -1.282228 2.579127 -26.329954
RightArm 17.392178 27.184546 121.751671
RightForeArm -4.922741 -0.000000 70.714105
RightHand 24.462250 -0.000000 -3.240415
RightHandThumb1 -24.326973 -0.000000 -32.862282
LeftUpLeg 8.563036 -4.689086 -4.261226
LeftLeg 5.070283 -0.000000 -0.000000
LeftFoot -16.825032 11.673650 -20.926465
LeftToeBase 16.856229 -0.000000 -0.000000
RightUpLeg 9.335096 -10.388543 1.428543
RightLeg 3.541383 -0.000000 -0.000000
RightFoot -13.622431 -13.927494 13.512050
RightToeBase 8.940469 -0.000000 -0.000000
1160
root 4.772026 32.325701 1.931713 -6.158420 4.217227 0.663491
Spine 3.485501 23.875743 1.079753
Head 10.470802 -21.299902 1.098559
LeftShoulder -6.218843 -5.119281 26.555457
LeftArm -3.789002 37.906630 -101.365108
LeftForeArm 5.281380 -0.000000 10.954751
LeftHand 10.268115 -0.000000 -7.184668
LeftHandThumb1 -26.253704 0.000000 33.147579
RightShoulder -1.314257 2.564101 -26.349131
RightArm 17.388401 27.024448 121.707002
RightForeArm -5.026972 -0.000000 70.608214
RightHand 24.475164 0.000000 -3.337406
RightHandThumb1 -24.326973 -0.000000 -32.862282
LeftUpLeg 8.576069 -4.621129 -4.259842
LeftLeg 5.040335 -0.000000 -0.000000
LeftFoot -16.748964 11.714322 -20.757556
LeftToeBase 16.630698 -0.000000 -0.000000
RightUpLeg 9.307962 -10.314641 1.439058
RightLeg 3.557482 -0.000000 -0.000000
RightFoot -13.640873 -13.932277 13.532090
RightToeBase 8.989723 -0.000000 -0.000000
1161
root 4.772867 32.325319 1.933257 -6.130897 4.144131 0.656627
Spine 3.458000 23.703133 1.044908
Head 10.432863 -21.272398 1.135343
LeftShoulder -6.219474 -5.071544 26.573712
LeftArm -3.800789 37.987110 -101.425508
LeftForeArm 5.264207 -0.000000 10.964134
LeftHand 10.378600 -0.000000 -7.162927
LeftHandThumb1 -26.253704 0.000000 33.147579
RightShoulder -1.340882 2.519879 -26.349293
RightArm 17.404255 26.869159 121.665894
RightForeArm -5.201798 -0.000000 70.537642
RightHand 24.413740 -0.000000 -3.219052
RightHandThumb1 -24.326973 -0.000000 -32.862282
LeftUpLeg 8.586629 -4.603253 -4.251650
LeftLeg 4.978739 -0.000000 -0.000000
LeftFoot -16.843579 11.725549 -20.960151
LeftToeBase 16.868863 -0.000000 -0.000000
RightUpLeg 9.262294 -10.235848 1.459975
RightLeg 3.579469 -0.000000 -0.000000
RightFoot -13.635694 -13.943133 13.518498
RightToeBase 8.934784 -0.000000 -0.000000
1162
root 4.773883 32.324685 1.935011 -6.108935 4.073095 0.656150
Spine 3.435411 23.503709 1.009670
Head 10.400463 -21.221825 1.159569
LeftShoulder -6.248629 -4.971262 26.590251
LeftArm -3.750809 38.134688 -101.459210
LeftForeArm 5.298470 -0.000000 11.010043
LeftHand 10.191732 -0.000000 -6.966764
LeftHandThumb1 -26.253704 0.000000 33.147579
RightShoulder -1.345288 2.539163 -26.359702
RightArm 17.355900 26.764010 121.595859
RightForeArm -5.347378 -0.000000 70.489112
RightHand 24.445457 -0.000000 -3.175255
RightHandThumb1 -24.326973 -0.000000 -32.862282
LeftUpLeg 8.596304 -4.537159 -4.243696
LeftLeg 4.935885 -0.000000 -0.000000
LeftFoot -16.845897 11.720421 -20.993179
LeftToeBase 16.849544 -0.000000 -0.000000
RightUpLeg 9.226234 -10.151899 1.473658
RightLeg 3.594242 -0.000000 -0.000000
RightFoot -13.659018 -13.955021 13.539398
RightToeBase 9.043418 -0.000000 -0.000000
1163
root 4.776384 32.324537 1.938363 -6.091993 3.996686 0.651834
Spine 3.413295 23.316972 0.984927
Head 10.375237 -21.167852 1.178650
LeftShoulder -6.203567 -4.967662 26.603833
LeftArm -3.862542 38.092777 -101.559151
LeftForeArm 5.411080 -0.000000 11.112923
LeftHand 10.121930 -0.000000 -7.020217
LeftHandThumb1 -26.253704 0.000000 33.147579
RightShoulder -1.371162 2.513775 -26.366364
RightArm 17.337057 26.657655 121.549890
RightForeArm -5.326032 -0.000000 70.440849
RightHand 24.773405 -0.000000 -3.590855
RightHandThumb1 -24.326973 -0.000000 -32.862282
LeftUpLeg 8.621508 -4.454322 -4.232027
LeftLeg 4.877038 -0.000000 -0.000000
LeftFoot -16.835940 11.710838 -20.990317
LeftToeBase 16.837375 -0.000000 -0.000000
RightUpLeg 9.200257 -10.087776 1.482275
RightLeg 3.608171 -0.000000 -0.000000
RightFoot -13.664656 -13.929654 13.559497
RightToeBase 9.038217 -0.000000 -0.000000
1164
root 4.777040 32.324460 1.936932 -6.035879 3.967446 0.653026
Spine 3.355047 23.079886 0.916960
Head 10.326451 -21.131487 1.241211
LeftShoulder -6.220413 -4.781426 26.605319
LeftArm -3.705905 38.202038 -101.494101
LeftForeArm 5.402489 -0.000000 11.200823
LeftHand 10.241012 -0.000000 -6.933160
LeftHandThumb1 -26.253704 0.000000 33.147579
RightShoulder -1.420475 2.401336 -26.365677
RightArm 17.409045 26.483912 121.532287
RightForeArm -5.510499 -0.000000 70.361717
RightHand 24.803295 -0.000000 -3.588382
RightHandThumb1 -24.326973 -0.000000 -32.862282
LeftUpLeg 8.579510 -4.466045 -4.234306
LeftLeg 4.850797 -0.000000 -0.000000
LeftFoot -16.843999 11.746616 -21.009391
LeftToeBase 16.860829 -0.000000 -0.000000
RightUpLeg 9.124790 -10.047080 1.496050
RightLeg 3.632455 -0.000000 -0.000000
RightFoot -13.679788 -13.925893 13.584897
RightToeBase 9.016806 -0.000000 -0.000000
1165
root 4.781124 32.323699 1.942033 -6.044857 3.864755 0.644048
Spine 3.364198 22.904351 0.925775
Head 10.316798 -21.102328 1.228048
LeftShoulder -6.208436 -4.809755 26.619329
LeftArm -3.836561 38.210209 -101.618134
LeftForeArm 5.185445 -0.000000 11.320501
LeftHand 10.184728 -0.000000 -6.646566
LeftHandThumb1 -26.253704 0.000000 33.147579
RightShoulder -1.466208 2.301688 -26.407871
RightArm 17.442054 26.318151 121.452837
RightForeArm -5.520651 -0.000000 70.277807
RightHand 24.805214 -0.000000 -3.543009
RightHandThumb1 -24.326973 -0.000000 -32.862282
LeftUpLeg 8.651467 -4.392976 -4.231834
LeftLeg 4.767524 -0.000000 -0.000000
LeftFoot -16.767804 11.814120 -20.839878
LeftToeBase 16.505695 -0.000000 -0.000000
RightUpLeg 9.123708 -9.963219 1.502520
RightLeg 3.645681 -0.000000 -0.000000
RightFoot -13.673406 -13.910653 13.578852
RightToeBase 9.003266 -0.000000 -0.000000
1166
root 4.783102 32.323624 1.943865 -6.020152 3.801597 0.646340
Spine 3.348603 22.675770 0.883136
Head 10.261660 -21.036851 1.259876
LeftShoulder -6.224088 -4.774952 26.627989
LeftArm -3.869040 38.212957 -101.640072
LeftForeArm 5.408231 -0.000000 11.457794
LeftHand 10.326905 -0.000000 -6.783403
LeftHandThumb1 -26.253704 0.000000 33.147579
RightShoulder -1.488404 2.367366 -26.443694
RightArm 17.338353 26.308966 121.375468
RightForeArm -5.606527 -0.000000 70.242159
RightHand 24.706129 0.000000 -3.407365
RightHandThumb1 -24.326973 -0.000000 -32.862282
LeftUpLeg 8.659205 -4.371057 -4.234768
LeftLeg 4.714132 -0.000000 -0.000000
LeftFoot -16.848404 11.822396 -21.034319
LeftToeBase 16.835147 -0.000000 -0.000000
RightUpLeg 9.088253 -9.906629 1.506617
RightLeg 3.656702 -0.000000 -0.000000
RightFoot -13.665321 -13.900842 13.552766
RightToeBase 8.991143 -0.000000 -0.000000
